<?xml version="1.0" encoding="utf-8"?>
<!-- Generator: Adobe Illustrator 16.0.0, SVG Export Plug-In . SVG Version: 6.00 Build 0)  -->
<!DOCTYPE svg PUBLIC "-//W3C//DTD SVG 1.1//EN" "http://www.w3.org/Graphics/SVG/1.1/DTD/svg11.dtd">
<svg version="1.1" id="Layer_1" xmlns="http://www.w3.org/2000/svg" xmlns:xlink="http://www.w3.org/1999/xlink" x="0px" y="0px"
	 width="1000px" height="1000px" viewBox="0 0 1000 1000" enable-background="new 0 0 1000 1000" xml:space="preserve">
<g>
	<path fill="#6A84FF" stroke="#6A84FF" stroke-miterlimit="10" d="M711.88,488.91v-22.624
		c-22.655-29.225-37.839-63.844-43.462-100.796c-1.687-10.869-15.265-15.137-22.335-6.683
		c-16.95,20.047-30.286,43.556-39.284,69.639C634.274,459.283,671.069,480.456,711.88,488.91z M801.855,405.824
		c-35.508,0-64.269,28.903-64.269,64.487v47.822c-83.872-4.992-155.051-56.757-187.186-130.181
		c-4.417-10.063-18.638-10.629-23.296-0.727c-13.338,28.26-20.888,59.819-20.888,93.148c0,56.999,27.396,110.217,68.365,149.664
		c10.606,10.225,20.969,18.679,31.253,26.408l-115.606,28.982c-8.594,2.174-12.45,12.157-7.632,19.645
		c13.979,21.656,48.523,58.368,123.076,61.427c6.428,0.242,12.854-2.094,17.755-6.359l52.379-45.165h61.779
		c71.019,0,128.539-57.562,128.539-128.731V457.349l25.707-51.524H801.855z M801.855,483.193c-7.067,0-12.854-5.798-12.854-12.882
		c0-7.085,5.786-12.881,12.854-12.881c7.072,0,12.855,5.796,12.855,12.881C814.711,477.396,808.928,483.193,801.855,483.193z"/>
	<path fill="#933FFF" stroke="#B36AFF" stroke-miterlimit="10" d="M484.726,282.823v-22.626
		c-22.654-29.223-37.839-63.842-43.461-100.796c-1.688-10.868-15.265-15.136-22.335-6.681
		c-16.951,20.047-30.286,43.556-39.284,69.639C407.121,253.194,443.916,274.367,484.726,282.823z M574.702,199.738
		c-35.508,0-64.269,28.901-64.269,64.487v47.821c-83.872-4.994-155.051-56.759-187.186-130.182
		c-4.417-10.063-18.638-10.628-23.296-0.725c-13.338,28.26-20.888,59.819-20.888,93.148c0,56.998,27.396,110.214,68.365,149.659
		c10.606,10.227,20.969,18.678,31.253,26.41l-115.606,28.98c-8.596,2.177-12.451,12.16-7.632,19.646
		c13.979,21.658,48.524,58.37,123.076,61.426c6.429,0.243,12.855-2.093,17.755-6.358l52.38-45.164h61.779
		c71.019,0,128.538-57.562,128.538-128.733V251.26l25.708-51.522H574.702z M574.702,277.105c-7.067,0-12.854-5.798-12.854-12.88
		c0-7.087,5.786-12.881,12.854-12.881c7.072,0,12.855,5.794,12.855,12.881C587.558,271.307,581.774,277.105,574.702,277.105z"/>
	<path fill="#A9C0FF" stroke="#A9C0FF" stroke-miterlimit="10" d="M376.76,558.987v-22.626
		c-22.653-29.223-37.837-63.842-43.459-100.794c-1.688-10.871-15.267-15.136-22.335-6.685
		c-16.952,20.049-30.288,43.558-39.285,69.642C299.156,529.357,335.949,550.53,376.76,558.987z M466.735,475.902
		c-35.505,0-64.269,28.901-64.269,64.486v47.821c-83.869-4.993-155.048-56.758-187.183-130.182
		c-4.417-10.063-18.638-10.628-23.296-0.724c-13.337,28.26-20.888,59.819-20.888,93.148c0,56.998,27.396,110.216,68.366,149.66
		c10.605,10.228,20.969,18.679,31.253,26.409l-115.606,28.981c-8.596,2.177-12.452,12.16-7.632,19.646
		c13.979,21.657,48.524,58.37,123.076,61.426c6.428,0.243,12.855-2.093,17.755-6.358l52.38-45.164h61.776
		c71.019,0,128.538-57.562,128.538-128.734V527.424l25.711-51.522H466.735z M466.735,553.269c-7.067,0-12.853-5.798-12.853-12.881
		c0-7.086,5.786-12.881,12.853-12.881c7.072,0,12.857,5.795,12.857,12.881C479.592,547.471,473.807,553.269,466.735,553.269z"/>
</g>
</svg>
