<?xml version="1.0" encoding="utf-8"?>
<!-- Generator: Adobe Illustrator 16.0.0, SVG Export Plug-In . SVG Version: 6.00 Build 0)  -->
<!DOCTYPE svg PUBLIC "-//W3C//DTD SVG 1.1//EN" "http://www.w3.org/Graphics/SVG/1.1/DTD/svg11.dtd">
<svg version="1.1" id="Layer_1" focusable="false" xmlns="http://www.w3.org/2000/svg" xmlns:xlink="http://www.w3.org/1999/xlink"
	 x="0px" y="0px" width="1000px" height="1000px" viewBox="0 0 1000 1000" enable-background="new 0 0 1000 1000"
	 xml:space="preserve">
<path fill="#C800E9" d="M986.25,250.781L682.031,100C650.625,143.438,581.094,173.75,500,173.75S349.375,143.438,317.969,100
	L13.75,250.781c-12.344,6.25-17.344,21.25-11.25,33.594l89.375,178.906c6.25,12.344,21.25,17.344,33.594,11.25l88.438-43.281
	c16.562-8.125,35.938,3.906,35.938,22.5V850c0,27.656,22.344,50,50,50h400c27.656,0,50-22.344,50-50V453.594
	c0-18.438,19.375-30.625,35.938-22.5l88.438,43.281c12.344,6.25,27.344,1.25,33.594-11.25l89.531-178.75
	C1003.594,272.031,998.594,256.875,986.25,250.781z"/>
</svg>
